<?xml version="1.0" encoding="UTF-8"?>
<!DOCTYPE svg PUBLIC "-//W3C//DTD SVG 1.1//EN" "http://www.w3.org/Graphics/SVG/1.1/DTD/svg11.dtd">
<!-- Creator: CorelDRAW 2019 (64 Bit) -->
<svg xmlns="http://www.w3.org/2000/svg" xml:space="preserve" width="17.407mm" height="17.32mm" version="1.1" style="shape-rendering:geometricPrecision; text-rendering:geometricPrecision; image-rendering:optimizeQuality; fill-rule:evenodd; clip-rule:evenodd"
viewBox="0 0 453.91 451.64"
 xmlns:xlink="http://www.w3.org/1999/xlink">
 <defs>
  <style type="text/css">
   <![CDATA[
    .fil1 {fill:#FEFEFE}
    .fil0 {fill:#00a1c8}
   ]]>
  </style>
 </defs>
 <g id="Camada_x0020_1">
  <metadata id="CorelCorpID_0Corel-Layer"/>
  <path class="fil0" d="M157.94 61.68c0,0 13.24,-5.37 25.71,-8.66 13.71,-3.61 25.85,-3.04 25.85,-3.04l12.53 -48.54c0,0 2.03,-2.42 3.74,-0.99 10.44,-0.86 45.62,1.18 59.94,4.95 4.67,2.54 6.38,3.98 6.53,9.59 -0.32,3.85 -0.86,47.35 -0.86,47.35 0,0 11.83,4.43 22.41,9.18 12.76,7.95 23.02,16.56 23.02,16.56 0,0 32.11,-19.77 44.11,-24.81 2.49,-0.66 5.45,0.45 5.91,2.21 1.71,1.43 36.83,48.74 38.54,50.17 0,0 0.93,3.53 -1.56,4.18 -7.33,7.59 -35.41,37.6 -35.41,37.6 0,0 6.53,9.59 8.53,22.26 3.72,14.1 4.01,25.34 4.01,25.34 0,0 45.14,14.5 49.34,15.28 2.96,1.11 3.89,4.63 3.57,8.49 -1.73,13.65 -8.18,54.94 -8.96,57.03 -0.32,3.85 -2.34,6.27 -5.3,5.17 -13.39,-0.24 -48.58,-2.28 -48.58,-2.28 0,0 -4.23,14.31 -10.63,25.42 -7.18,13.2 -17.79,23.54 -17.79,23.54 0,0 23.61,39.03 24.07,40.79 1.71,1.43 1.4,5.29 -0.63,7.71 -9.82,8.24 -48.8,37.36 -48.8,37.36 0,0 -4.99,1.31 -6.7,-0.12 -5.6,-6.07 -33.58,-36.4 -33.58,-36.4 0,0 -13.25,5.37 -25.71,8.65 -13.71,3.61 -26.63,5.13 -26.63,5.13 0,0 -13.46,45.02 -14.25,47.11 -0.78,2.09 -5.77,3.4 -7.01,3.73 -13.85,-2.01 -58.38,-9.13 -58.38,-9.13 -2.49,0.66 -3.42,-2.87 -4.35,-6.39 0.02,-15.09 -0.39,-47.03 -0.39,-47.03 0,0 -13.07,-4.1 -24.58,-12.37 -12.76,-7.95 -21.77,-16.89 -21.77,-16.89 0,0 -36.63,22.85 -40.37,23.83 -3.74,0.99 -7.94,0.21 -9.65,-1.23 -7.77,-9.26 -28.59,-37.71 -35.12,-47.3 -0.46,-1.76 -0.15,-5.62 0.63,-7.71 1.25,-0.33 35.09,-33.75 35.09,-33.75 0,0 -4.03,-10.25 -8.53,-22.26 -3.72,-14.1 -6.65,-30.3 -6.65,-30.3 0,0 -42.96,-11.31 -45.91,-12.41 -2.96,-1.11 -3.89,-4.63 -3.1,-6.72 0.95,-11.56 8.5,-58.79 8.5,-58.79 0,0 0,0 0,0 0.32,-3.85 4.05,-4.84 6.55,-5.49 13.39,0.24 46.09,2.94 46.09,2.94 0,0 7.5,-17.06 14.68,-30.26 6.87,-9.35 15.44,-17.26 15.44,-17.26 0,0 -24.07,-40.79 -24.54,-42.55 -0.46,-1.76 -1.39,-5.29 0.64,-7.71 9.82,-8.24 40.22,-29.45 48.01,-35.27 2.03,-2.42 6.23,-1.64 6.7,0.12 9.02,8.93 35.6,33.98 35.6,33.98z"/>
  <circle class="fil1" cx="226.95" cy="225.82" r="107.97"/>
 </g>
</svg>
