<?xml version="1.0" encoding="UTF-8"?>
<!DOCTYPE svg PUBLIC "-//W3C//DTD SVG 1.1//EN" "http://www.w3.org/Graphics/SVG/1.1/DTD/svg11.dtd">
<!-- Creator: CorelDRAW 2019 (64 Bit) -->
<svg xmlns="http://www.w3.org/2000/svg" xml:space="preserve" width="426.604mm" height="41.5432mm" version="1.1" style="shape-rendering:geometricPrecision; text-rendering:geometricPrecision; image-rendering:optimizeQuality; fill-rule:evenodd; clip-rule:evenodd"
viewBox="0 0 61798.86 6018.04"
 xmlns:xlink="http://www.w3.org/1999/xlink">
 <defs>
  <style type="text/css">
   <![CDATA[
    .fil0 {fill:#FEFEFE}
   ]]>
  </style>
 </defs>
 <g id="Camada_x0020_1">
  <metadata id="CorelCorpID_0Corel-Layer"/>
  <path class="fil0" d="M15941.09 3811.12c0,0 222.74,-33.56 425.79,-37.97 223.36,-4.82 407.37,48.66 407.37,48.66l370.88 -697.7c0,0 39.98,-29.6 60.91,-1.32 163.07,25.21 694.74,186.12 900.29,296.61 62.16,56.13 83.08,84.41 64.65,171.02 -19.06,57.89 -187.51,722.46 -187.51,722.46 0,0 164.93,111.37 309.56,223.19 166.17,168.81 291.74,338.51 291.74,338.51 0,0 564.82,-184.64 767.26,-217.77 40.6,-0.87 81.83,26.97 82.46,55.7 20.93,28.28 384.78,882.49 405.72,910.76 0,0 1.23,57.44 -39.37,58.32l-6843.6 119.44c-41.24,-27.84 -42.47,-85.29 -22.8,-114.46 57.19,-173.66 346.84,-869.59 346.84,-869.59 0,0 0,0 0,0 19.06,-57.89 79.98,-59.21 120.6,-60.07 204.3,53.05 695.37,214.83 695.37,214.83 0,0 177.77,-233.74 336.49,-409.6 139.65,-117.96 300.23,-207.65 300.23,-207.65 0,0 -218.6,-713.66 -219.22,-742.39 -0.62,-28.73 -1.87,-86.16 38.13,-115.77 180.88,-90.12 724.77,-303.05 865.67,-363.58 40,-29.6 101.53,-2.2 102.16,26.52 105.26,170.14 420.4,651.84 420.4,651.84z"/>
  <rect class="fil0" x="-0.02" y="4750.97" width="61798.87" height="1267.07"/>
  <path class="fil0" d="M19783.54 4322.89c0,0 107.81,-93.42 214.98,-164.58 117.87,-78.25 234.45,-111.98 234.45,-111.98l-37.92 -498.99c0,0 11.36,-29.39 32.14,-21.34 95.8,-41.76 434.8,-135.81 582.23,-146.33 52.27,8.97 73.05,17.01 92.52,69.61 9.42,37.43 144.46,450.1 144.46,450.1 0,0 125.99,3.72 241.25,14.54 146.12,34.03 270.81,82.3 270.81,82.3 0,0 239.67,-290.17 336.78,-376.5 21.43,-14.23 52.93,-13.3 62.99,1.87 20.79,8.04 504.9,341.83 525.68,349.87 0,0 20.14,30.32 -1.3,44.55 -44.82,95.29 -213.38,469.3 -213.38,469.3 0,0 92.54,69.61 152.26,182.83 80.51,121.26 119.47,226.45 119.47,226.45 0,0 473.12,-8.36 515.33,-14.54 31.49,0.93 51.61,31.25 61.03,68.68 27.58,134.58 99.64,545.39 98.98,567.67l-4026.14 52.27c0,0 15.93,-185.29 41.29,-333.17 34.75,-110.44 90.29,-212.83 90.29,-212.83 0,0 -358.78,-307.82 -368.85,-322.97 -10.05,-15.17 -30.19,-45.47 -18.82,-74.86 66.25,-109.52 285.13,-407.73 340.02,-487.85 11.37,-29.39 53.58,-35.58 63.65,-20.43 113.96,55.38 445.81,206.34 445.81,206.34z"/>
  <path class="fil0" d="M10515.2 1694.93c0,0 262.56,-80.64 506.64,-122.57 268.49,-46.12 500.02,-14.8 500.02,-14.8l321.43 -908.27c0,0 42.88,-42.91 73.21,-12.57 201.2,0.99 871.39,99.14 1139.2,195.32 85.08,56.48 115.43,86.8 108.81,194.58 -12.55,73.24 -95.83,905.07 -95.83,905.07 0,0 218.99,104.56 413.57,213.31 230.84,173.62 412.87,355.62 412.87,355.62 0,0 647.85,-324.55 885.99,-400.99 48.82,-8.39 103.56,17.75 109.5,52.28 30.33,30.33 623.18,994.83 653.52,1025.16 0,0 11.86,69.06 -36.95,77.44 -153.06,132.91 -740.93,660.43 -740.93,660.43 0,0 108.81,194.56 125.91,440.44 47.44,276.21 34.2,491.75 34.2,491.75 0,0 839.68,353.39 918.83,375.34 54.74,26.15 66.61,95.19 54.06,168.43l-7688.98 147.73c-47.44,-276.19 -76.4,-591.12 -76.4,-591.12 0,0 -803.41,-288.54 -858.16,-314.67 -54.74,-26.15 -66.61,-95.2 -48.12,-133.91 37.64,-219.74 261.43,-1111.24 261.43,-1111.24 0,0 0,0 0,0 12.55,-73.24 85.77,-85.82 134.59,-94.2 255.94,27.12 877.31,133.66 877.31,133.66 0,0 172.24,-313.95 331.92,-554.63 147.14,-167.45 324.61,-304.56 324.61,-304.56 0,0 -392.34,-821.22 -398.27,-855.74 -5.92,-34.54 -17.79,-103.58 25.09,-146.5 201.88,-141.3 819.4,-496.18 978.39,-594.57 42.89,-42.91 122.05,-20.96 127.97,13.56 157.62,186.19 624.56,710.25 624.56,710.25z"/>
  <path class="fil0" d="M4145.73 1359.91c0,0 292,-118.47 566.76,-190.86 302.24,-79.62 569.99,-67.03 569.99,-67.03l276.34 -1070.27c0,0 44.7,-53.35 82.43,-21.71 230.04,-19.05 1005.84,25.96 1321.55,109.05 102.91,56 140.62,87.64 143.86,211.47 -7,84.96 -18.82,1044.01 -18.82,1044.01 0,0 260.77,97.55 494.05,202.36 281.24,175.28 507.51,365.04 507.51,365.04 0,0 707.9,-435.85 972.42,-547.09 54.96,-14.47 120.15,9.91 130.39,48.78 37.71,31.62 811.94,1074.54 849.66,1106.17 0,0 20.47,77.73 -34.48,92.2 -161.62,167.26 -780.62,829.06 -780.62,829.06 0,0 143.86,211.48 188.05,490.78 81.91,310.92 88.38,558.57 88.38,558.57 0,0 995.09,319.74 1087.76,336.89 65.19,24.39 85.67,102.13 78.67,187.09l-8919.53 271.53c0,0 -947.14,-249.25 -1012.33,-273.63 -65.19,-24.39 -85.67,-102.13 -68.43,-148.22 21.01,-254.91 187.42,-1296.24 187.42,-1296.24 0,0 0,0 0,0 7.01,-84.96 89.44,-106.68 144.38,-121.15 295.23,5.35 1016.09,64.83 1016.09,64.83 0,0 165.37,-376.06 323.75,-667.15 151.38,-206.12 340.47,-380.63 340.47,-380.63 0,0 -530.7,-899.25 -540.94,-938.11 -10.24,-38.87 -30.71,-116.6 13.99,-169.94 216.57,-181.74 886.76,-649.21 1058.61,-777.61 44.72,-53.34 137.37,-36.19 147.61,2.67 198.81,197.01 784.99,749.14 784.99,749.14z"/>
  <path class="fil0" d="M22367.73 3418.04c0,0 124.57,-58.83 242.72,-97.13 129.98,-42.11 247.16,-43.15 247.16,-43.15l94.49 -473.89c0,0 18.22,-24.37 35.45,-11.49 99.94,-13.92 439.66,-13.2 579.48,15.37 46.28,21.93 63.52,34.82 67.95,88.79 -0.99,37.26 17.25,456.14 17.25,456.14 0,0 116.19,36.22 220.57,76.27 127.03,69.65 230.43,146.95 230.43,146.95 0,0 298.34,-207.5 411.08,-262.5 23.64,-7.66 52.69,1.39 58.1,18.11 17.22,12.89 380.6,449.2 397.84,462.08 0,0 10.84,33.43 -12.81,41.1 -66.46,76.94 -320.49,380.9 -320.49,380.9 0,0 67.95,88.79 94.06,209.62 43.33,133.71 52.19,241.64 52.19,241.64 0,0 442.12,115.3 482.99,120.51 29.04,9.07 39.88,42.49 38.9,79.75 -9.34,132.32 -49.2,533.08 -55.6,553.62 -2.96,111.78 -423.4,63.35 -516.96,56.73l-3233.66 13.69c-43.34,-133.71 -80.27,-287.97 -80.27,-287.97 0,0 -419.48,-85.69 -448.52,-94.74 -29.04,-9.05 -39.88,-42.47 -33.48,-63.02 2.94,-111.78 50.18,-570.35 50.18,-570.35 0,0 0,0 0,0 0.99,-37.24 36.43,-48.73 60.06,-56.39 129,-4.87 445.07,3.51 445.07,3.51 0,0 63.02,-168.17 125.05,-299.08 61.04,-93.67 139.31,-174.44 139.31,-174.44 0,0 -253.57,-379.54 -258.98,-396.26 -5.42,-16.72 -16.25,-50.14 1.96,-74.52 90.1,-84.6 371.21,-304.99 443.09,-365.23 18.21,-24.37 59.07,-19.14 64.49,-2.43 91.58,81.14 360.9,307.83 360.9,307.83z"/>
  <path class="fil0" d="M25021.67 4414.72c0,0 107.81,-93.42 214.98,-164.58 117.87,-78.25 234.45,-111.98 234.45,-111.98l-37.92 -498.99c0,0 11.36,-29.39 32.14,-21.34 95.8,-41.76 434.8,-135.81 582.23,-146.33 52.27,8.97 73.05,17.01 92.52,69.61 9.42,37.43 144.46,450.1 144.46,450.1 0,0 125.99,3.72 241.25,14.54 146.12,34.03 270.81,82.3 270.81,82.3 0,0 239.67,-290.17 336.78,-376.5 21.43,-14.23 52.93,-13.3 62.99,1.87 20.79,8.04 504.9,341.83 525.68,349.87 0,0 20.14,30.32 -1.3,44.55 -44.82,95.29 -213.38,469.3 -213.38,469.3 0,0 92.54,69.61 152.26,182.83 80.51,121.26 119.47,226.45 119.47,226.45 0,0 473.12,-8.36 515.33,-14.54 31.49,0.93 51.61,31.25 61.03,68.68 27.58,134.58 99.64,545.39 98.98,567.67l-3984.86 -280.9c34.75,-110.44 90.29,-212.83 90.29,-212.83 0,0 -358.78,-307.82 -368.85,-322.97 -10.05,-15.17 -30.19,-45.47 -18.82,-74.86 66.25,-109.52 285.13,-407.73 340.02,-487.85 11.37,-29.39 53.58,-35.58 63.65,-20.43 113.96,55.38 445.81,206.34 445.81,206.34z"/>
  <path class="fil0" d="M27539.61 5311.93c0,0 107.81,-93.42 214.98,-164.58 117.87,-78.25 234.45,-111.98 234.45,-111.98l-37.92 -498.99c0,0 11.36,-29.39 32.14,-21.34 95.8,-41.76 434.8,-135.81 582.23,-146.33 52.27,8.97 73.05,17.01 92.52,69.61 9.42,37.43 144.46,450.1 144.46,450.1 0,0 125.99,3.72 241.25,14.54 146.12,34.03 270.81,82.3 270.81,82.3 0,0 239.67,-290.17 336.78,-376.5 21.43,-14.23 52.93,-13.3 62.99,1.87 20.79,8.04 504.9,341.83 525.68,349.87 0,0 20.14,30.32 -1.3,44.55 -44.82,95.29 -213.38,469.3 -213.38,469.3 0,0 92.54,69.61 152.26,182.83l-3468.6 31.55c-10.05,-15.17 -30.19,-45.47 -18.82,-74.86 66.25,-109.52 285.13,-407.73 340.02,-487.85 11.37,-29.39 53.58,-35.58 63.65,-20.43 113.96,55.38 445.81,206.34 445.81,206.34z"/>
 </g>
</svg>
